<svg xmlns="http://www.w3.org/2000/svg" xmlns:xlink="http://www.w3.org/1999/xlink" width="500" zoomAndPan="magnify" viewBox="0 0 375 374.999991" height="500" preserveAspectRatio="xMidYMid meet" version="1.0"><defs><clipPath id="ef37be6793"><path d="M 96 81.265625 L 141 81.265625 L 141 161 L 96 161 Z M 96 81.265625 " clip-rule="nonzero"/></clipPath><clipPath id="c901581e4d"><path d="M 119 81.265625 L 196 81.265625 L 196 161 L 119 161 Z M 119 81.265625 " clip-rule="nonzero"/></clipPath></defs><path fill="#ffffff" d="M 141.320312 196.929688 C 141.320312 205.667969 138.378906 225.066406 141.320312 233.035156 C 147.085938 248.683594 146.164062 254.597656 140.773438 267.175781 C 140.773438 267.175781 134.53125 265.890625 131.117188 271.894531 C 129.875 274.074219 126.738281 281.777344 132.460938 281.777344 C 138.09375 281.777344 149.3125 281.046875 152.621094 281.046875 C 157.5625 281.046875 159.359375 276.554688 159.359375 269.367188 C 159.359375 263.078125 171.546875 248.8125 168.679688 243.757812 C 164.421875 236.238281 163.628906 235.390625 164.808594 230.953125 C 167.304688 221.546875 171.980469 211.570312 172.386719 198.273438 C 172.726562 187.320312 165.699219 167.277344 150.191406 167.277344 C 139.085938 167.277344 141.320312 171.941406 141.320312 196.929688 " fill-opacity="1" fill-rule="nonzero"/><path fill="#ffffff" d="M 160.839844 260.25 C 158.160156 256.476562 155.480469 251.945312 150.851562 250.339844 C 149.027344 249.707031 147.15625 249.460938 145.230469 249.347656 C 144.886719 254.945312 143.382812 259.714844 140.441406 266.582031 C 140.441406 266.582031 134.183594 265.894531 130.660156 272.085938 C 129.382812 274.335938 126.148438 282.28125 132.050781 282.28125 C 137.863281 282.28125 148.871094 282.308594 152.285156 282.308594 C 157.382812 282.308594 159.800781 276.894531 159.800781 269.476562 C 159.800781 267.59375 160.761719 264.402344 162.195312 261.558594 C 161.6875 260.9375 161.304688 260.90625 160.839844 260.25 " fill-opacity="1" fill-rule="nonzero"/><path fill="#231f20" d="M 131.175781 281.859375 C 131.003906 280.8125 131.195312 279.773438 131.554688 278.796875 C 131.925781 277.824219 132.511719 276.910156 133.300781 276.160156 C 134.082031 275.410156 135.074219 274.847656 136.128906 274.605469 C 137.183594 274.359375 138.28125 274.417969 139.246094 274.839844 C 138.285156 275.261719 137.445312 275.632812 136.703125 276.089844 C 135.960938 276.535156 135.304688 277.046875 134.691406 277.628906 C 134.074219 278.210938 133.507812 278.859375 132.9375 279.566406 C 132.367188 280.277344 131.8125 281.035156 131.175781 281.859375 " fill-opacity="1" fill-rule="nonzero"/><path fill="#231f20" d="M 129.898438 276.214844 C 129.714844 275.3125 129.839844 274.371094 130.203125 273.507812 C 130.574219 272.644531 131.230469 271.855469 132.058594 271.324219 C 132.882812 270.785156 133.847656 270.523438 134.761719 270.5 C 135.683594 270.472656 136.566406 270.65625 137.390625 271.078125 C 136.558594 271.496094 135.777344 271.757812 135.066406 272.058594 C 134.355469 272.351562 133.726562 272.65625 133.15625 273.023438 C 132.582031 273.390625 132.058594 273.820312 131.539062 274.359375 C 131.015625 274.902344 130.523438 275.519531 129.898438 276.214844 " fill-opacity="1" fill-rule="nonzero"/><path fill="#231f20" d="M 137.644531 282.195312 C 137.460938 281.292969 137.585938 280.355469 137.953125 279.488281 C 138.324219 278.625 138.980469 277.835938 139.808594 277.304688 C 140.636719 276.765625 141.59375 276.503906 142.507812 276.480469 C 143.429688 276.453125 144.3125 276.636719 145.140625 277.058594 C 144.308594 277.476562 143.527344 277.738281 142.820312 278.039062 C 142.105469 278.332031 141.476562 278.636719 140.898438 279.003906 C 140.332031 279.375 139.808594 279.804688 139.289062 280.34375 C 138.765625 280.878906 138.273438 281.496094 137.644531 282.195312 " fill-opacity="1" fill-rule="nonzero"/><path fill="#ffffff" d="M 247.804688 225.273438 C 233.609375 222.21875 199.722656 218.941406 182.472656 247.328125 C 182.3125 247.597656 182.144531 247.859375 181.980469 248.113281 L 181.960938 248.042969 C 181.890625 248.183594 181.816406 248.320312 181.746094 248.457031 C 181.617188 248.652344 181.484375 248.847656 181.359375 249.035156 L 181.363281 249.195312 C 172.0625 266.054688 144.964844 264.46875 144.964844 264.46875 C 141.535156 252.652344 122.8125 250.914062 126.261719 262.789062 C 127.527344 267.140625 129.429688 273.683594 129.429688 273.683594 C 132.570312 282.441406 137.878906 281.597656 143.28125 280.753906 C 145.550781 280.398438 147.828125 280.046875 149.976562 280.398438 C 159.125 281.90625 170.855469 282.683594 177.59375 281.867188 C 178.757812 281.722656 183.671875 280.375 184.441406 279.703125 C 184.445312 279.710938 185.265625 279.359375 186.304688 279.011719 C 187.632812 278.566406 189.320312 278.121094 190.121094 278.414062 C 230.933594 293.402344 265.1875 284.929688 269.367188 257.253906 C 271.367188 243.988281 260.730469 228.046875 247.804688 225.273438 " fill-opacity="1" fill-rule="nonzero"/><path fill="#ffffff" d="M 162.980469 264.492188 C 162.65625 264.480469 162.488281 264.46875 162.488281 264.46875 C 162.371094 264.078125 162.242188 263.699219 162.09375 263.328125 C 162.386719 263.722656 162.683594 264.105469 162.980469 264.492188 " fill-opacity="1" fill-rule="nonzero"/><path fill="#ffffff" d="M 162 267.789062 C 161.695312 266.347656 161.292969 264.222656 160.917969 262.796875 C 152.71875 263.695312 144.96875 263.691406 144.96875 263.691406 C 141.46875 251.628906 122.0625 250.636719 125.582031 262.753906 C 126.875 267.203125 128.816406 273.878906 128.816406 273.878906 C 132.039062 282.875 137.628906 282.101562 143.253906 281.328125 C 145.558594 281.011719 147.867188 280.695312 150.019531 281.050781 C 153.390625 281.605469 157.816406 281.945312 162.207031 281.78125 C 162.972656 277.136719 163.011719 272.589844 162 267.789062 " fill-opacity="1" fill-rule="nonzero"/><path fill="#231f20" d="M 125.542969 257.792969 C 126.5 257.339844 127.550781 257.230469 128.589844 257.304688 C 129.628906 257.390625 130.671875 257.695312 131.609375 258.242188 C 132.546875 258.785156 133.359375 259.582031 133.890625 260.527344 C 134.421875 261.46875 134.671875 262.542969 134.539062 263.585938 C 133.859375 262.78125 133.273438 262.082031 132.625 261.492188 C 131.988281 260.902344 131.316406 260.417969 130.585938 259.988281 C 129.859375 259.5625 129.078125 259.195312 128.234375 258.847656 C 127.394531 258.496094 126.515625 258.175781 125.542969 257.792969 " fill-opacity="1" fill-rule="nonzero"/><path fill="#231f20" d="M 130.609375 254.992188 C 131.417969 254.558594 132.359375 254.421875 133.292969 254.53125 C 134.226562 254.648438 135.164062 255.058594 135.90625 255.703125 C 136.648438 256.347656 137.171875 257.191406 137.449219 258.070312 C 137.730469 258.949219 137.800781 259.847656 137.632812 260.753906 C 136.992188 260.074219 136.523438 259.394531 136.039062 258.796875 C 135.5625 258.195312 135.089844 257.675781 134.574219 257.226562 C 134.066406 256.78125 133.507812 256.398438 132.847656 256.050781 C 132.179688 255.699219 131.449219 255.402344 130.609375 254.992188 " fill-opacity="1" fill-rule="nonzero"/><path fill="#231f20" d="M 126.203125 263.988281 C 127.015625 263.558594 127.957031 263.417969 128.886719 263.53125 C 129.824219 263.644531 130.765625 264.054688 131.503906 264.703125 C 132.246094 265.347656 132.765625 266.191406 133.050781 267.0625 C 133.328125 267.945312 133.402344 268.84375 133.230469 269.753906 C 132.589844 269.074219 132.121094 268.390625 131.640625 267.796875 C 131.160156 267.195312 130.6875 266.671875 130.175781 266.226562 C 129.660156 265.78125 129.101562 265.398438 128.445312 265.050781 C 127.777344 264.695312 127.046875 264.398438 126.203125 263.988281 " fill-opacity="1" fill-rule="nonzero"/><path fill="#f3aa46" d="M 272.289062 278.914062 C 294.257812 249.65625 282.226562 197.402344 236.78125 177.5 C 190.628906 157.28125 195.246094 131.671875 195.246094 131.671875 L 141.09375 154.820312 C 141.09375 154.820312 141.09375 179.703125 141.09375 212.875 C 141.09375 233.757812 164.277344 274.238281 179.820312 278.914062 L 272.289062 278.914062 " fill-opacity="1" fill-rule="nonzero"/><path fill="#ef773b" d="M 237.042969 177.386719 C 190.894531 157.167969 195.507812 131.5625 195.507812 131.5625 L 180.957031 137.78125 C 181.59375 142.449219 185.609375 163.636719 206.6875 176.375 C 230.484375 190.753906 250.996094 203.332031 250.996094 230.28125 C 250.996094 248.074219 257.960938 267.820312 267.65625 278.804688 L 272.554688 278.804688 C 294.519531 249.542969 282.492188 197.289062 237.042969 177.386719 " fill-opacity="1" fill-rule="nonzero"/><path fill="#f3aa46" d="M 286.804688 226.742188 C 286.804688 226.742188 295.867188 208.566406 289.546875 189.0625 C 283.230469 169.550781 303.511719 157.652344 307.1875 154.570312 C 307.1875 154.570312 298.339844 174.335938 302.492188 184.679688 C 309.980469 203.328125 315.988281 238.535156 280.097656 257.554688 C 280.097656 257.554688 275.105469 236.003906 286.804688 226.742188 " fill-opacity="1" fill-rule="nonzero"/><path fill="#ffffff" d="M 289.546875 189.0625 C 289.613281 189.214844 294.539062 189.929688 296.558594 189.269531 C 301.316406 187.71875 302.71875 185.558594 302.492188 184.679688 C 299.386719 172.773438 308.257812 152.78125 308.257812 152.78125 C 304.585938 155.867188 280.128906 166.234375 289.546875 189.0625 " fill-opacity="1" fill-rule="nonzero"/><g clip-path="url(#ef37be6793)"><path fill="#f3aa46" d="M 140.121094 81.890625 C 140.121094 81.890625 132.953125 82.949219 125.277344 86.238281 C 116.609375 89.957031 107.027344 94.609375 101.597656 99.035156 C 96.785156 102.960938 95.125 105.984375 96.765625 111.3125 C 99.628906 120.605469 106.402344 143.242188 110.027344 155.378906 C 111.46875 160.210938 114.597656 162.128906 117.492188 159.859375 C 123.066406 155.492188 131.292969 147.355469 131.652344 137.183594 C 132.207031 121.726562 140.121094 81.890625 140.121094 81.890625 " fill-opacity="1" fill-rule="nonzero"/></g><g clip-path="url(#c901581e4d)"><path fill="#f3aa46" d="M 192.375 120.46875 L 187.199219 90.476562 L 178.910156 82.230469 C 178.910156 82.230469 173.078125 81.289062 171.480469 81.457031 C 167.597656 81.867188 160.941406 83.292969 157.027344 83.28125 L 157.027344 83.320312 L 157.027344 83.28125 C 153.117188 83.3125 146.453125 81.925781 142.566406 81.535156 C 140.964844 81.378906 131.183594 83.597656 126.894531 90.644531 C 122.933594 97.140625 121.886719 120.664062 121.886719 120.664062 C 119.480469 125.144531 116.035156 139.367188 124.335938 144.890625 C 137.730469 153.804688 140.71875 160.632812 152.457031 160.601562 L 157.238281 160.589844 L 157.242188 160.554688 L 157.246094 160.589844 L 162.023438 160.574219 C 173.761719 160.542969 176.710938 153.695312 190.058594 144.707031 C 198.332031 139.136719 194.804688 124.9375 192.375 120.46875 " fill-opacity="1" fill-rule="nonzero"/></g><path fill="#ffffff" d="M 164.339844 126.390625 L 160.824219 82.984375 C 159.898438 83.082031 158.027344 83.191406 157.074219 83.222656 C 156.167969 83.257812 155.070312 83.296875 153.410156 83.070312 L 149.945312 126.625 C 141.09375 128.621094 133.101562 134.074219 133.121094 141.335938 C 133.132812 145.679688 138.988281 155.238281 142.289062 158.1875 C 145.125 159.71875 148.207031 160.589844 152.410156 160.574219 L 157.1875 160.5625 L 157.195312 160.527344 L 157.195312 160.5625 L 161.976562 160.550781 C 166.175781 160.535156 169.25 159.652344 172.082031 158.105469 C 175.371094 155.140625 181.261719 143.765625 181.246094 139.421875 C 181.230469 132.183594 173.199219 127.882812 164.339844 126.390625 " fill-opacity="1" fill-rule="nonzero"/><path fill="#231f20" d="M 181.25 116.84375 C 181.261719 119.382812 179.957031 121.441406 178.34375 121.449219 C 176.734375 121.453125 175.417969 119.398438 175.414062 116.855469 C 175.40625 114.320312 176.707031 112.253906 178.324219 112.25 C 179.933594 112.246094 181.242188 114.300781 181.25 116.84375 " fill-opacity="1" fill-rule="nonzero"/><path fill="#231f20" d="M 138.824219 116.957031 C 138.832031 119.496094 137.535156 121.558594 135.921875 121.5625 C 134.308594 121.566406 132.996094 119.511719 132.988281 116.972656 C 132.980469 114.4375 134.285156 112.371094 135.894531 112.367188 C 137.503906 112.359375 138.820312 114.417969 138.824219 116.957031 " fill-opacity="1" fill-rule="nonzero"/><path fill="#f3aa46" d="M 178.570312 82.179688 C 178.570312 82.179688 178.972656 82.210938 190.898438 84.519531 C 198.679688 86.019531 207.789062 88.546875 216.632812 92.773438 C 221.988281 95.335938 221.363281 102.980469 219.84375 108.414062 C 216.9375 118.820312 211.191406 142.449219 208.652344 152.964844 C 207.882812 156.183594 203.988281 157.179688 199.867188 155.023438 C 193.613281 151.746094 185.730469 145.761719 185.707031 136.441406 C 185.640625 113.460938 185.574219 105.984375 185.539062 93.453125 C 185.519531 88.105469 178.570312 82.179688 178.570312 82.179688 " fill-opacity="1" fill-rule="nonzero"/><path fill="#231f20" d="M 144.226562 125.410156 C 145.011719 122.171875 150.296875 121.382812 156.933594 121.363281 C 164.957031 121.34375 168.816406 122.121094 169.484375 125.339844 C 170.273438 129.132812 162.71875 135.671875 156.488281 135.691406 C 151.425781 135.703125 143.285156 129.332031 144.226562 125.410156 " fill-opacity="1" fill-rule="nonzero"/><path fill="#231f20" d="M 184.003906 139.5625 L 183.816406 139.574219 L 183.816406 139.578125 C 181.914062 141.613281 179.828125 143.503906 177.589844 145.160156 C 176.464844 145.980469 175.300781 146.742188 174.070312 147.363281 C 172.851562 147.984375 171.554688 148.472656 170.261719 148.621094 C 169.9375 148.65625 169.625 148.671875 169.300781 148.65625 C 168.976562 148.644531 168.644531 148.613281 168.320312 148.566406 C 167.664062 148.46875 167.027344 148.304688 166.40625 148.082031 C 165.164062 147.636719 164.003906 146.964844 162.933594 146.167969 C 161.863281 145.371094 160.882812 144.445312 159.988281 143.449219 C 159.539062 142.945312 159.113281 142.429688 158.710938 141.894531 C 158.507812 141.628906 158.3125 141.359375 158.125 141.085938 C 157.941406 140.824219 157.742188 140.527344 157.597656 140.28125 C 157.503906 140.125 157.363281 139.980469 157.191406 139.878906 C 157.09375 139.820312 157.585938 134.683594 157.585938 134.683594 L 155.503906 134.691406 C 155.503906 134.691406 155.738281 140.015625 155.582031 140.265625 L 155.570312 140.289062 C 155.421875 140.527344 155.230469 140.824219 155.046875 141.097656 C 154.859375 141.367188 154.664062 141.636719 154.464844 141.90625 C 154.058594 142.441406 153.632812 142.957031 153.191406 143.460938 C 152.296875 144.460938 151.324219 145.390625 150.257812 146.195312 C 149.195312 146.996094 148.035156 147.667969 146.796875 148.117188 C 146.175781 148.339844 145.539062 148.511719 144.890625 148.605469 C 144.566406 148.65625 144.242188 148.6875 143.910156 148.703125 L 143.792969 148.707031 L 143.433594 148.707031 C 143.277344 148.703125 143.117188 148.6875 142.953125 148.671875 C 141.667969 148.527344 140.371094 148.042969 139.152344 147.433594 C 137.921875 146.816406 136.753906 146.0625 135.628906 145.246094 C 133.386719 143.601562 131.296875 141.722656 129.386719 139.695312 L 129.382812 139.691406 C 129.316406 139.621094 129.210938 139.617188 129.132812 139.671875 C 129.058594 139.738281 129.042969 139.84375 129.109375 139.921875 C 130.914062 142.078125 132.894531 144.089844 135.085938 145.90625 C 136.1875 146.8125 137.347656 147.65625 138.605469 148.386719 C 139.863281 149.105469 141.230469 149.730469 142.761719 149.992188 C 142.949219 150.023438 143.144531 150.050781 143.339844 150.070312 C 143.4375 150.074219 143.53125 150.085938 143.640625 150.085938 L 143.78125 150.097656 L 143.929688 150.097656 C 144.308594 150.105469 144.695312 150.085938 145.074219 150.050781 C 145.835938 149.984375 146.585938 149.832031 147.316406 149.617188 C 148.777344 149.179688 150.125 148.492188 151.363281 147.671875 C 152.597656 146.847656 153.722656 145.894531 154.757812 144.863281 C 155.273438 144.347656 155.765625 143.8125 156.242188 143.253906 C 156.363281 143.113281 156.476562 142.96875 156.597656 142.820312 C 156.710938 142.964844 156.824219 143.109375 156.945312 143.25 C 157.425781 143.800781 157.921875 144.335938 158.441406 144.847656 C 159.480469 145.871094 160.613281 146.816406 161.855469 147.632812 C 163.09375 148.445312 164.449219 149.121094 165.910156 149.546875 C 166.640625 149.757812 167.390625 149.90625 168.152344 149.972656 C 168.53125 150.003906 168.914062 150.015625 169.292969 150.003906 C 169.683594 150 170.078125 149.957031 170.457031 149.890625 C 171.984375 149.621094 173.34375 148.988281 174.59375 148.261719 C 175.839844 147.523438 176.992188 146.667969 178.085938 145.761719 C 180.265625 143.929688 182.230469 141.910156 184.019531 139.742188 L 184.003906 139.5625 " fill-opacity="1" fill-rule="nonzero"/><path fill="#f3aa46" d="M 265.324219 225.273438 C 251.125 222.21875 217.242188 218.941406 199.992188 247.328125 C 199.828125 247.597656 199.664062 247.859375 199.496094 248.113281 L 199.476562 248.042969 C 199.410156 248.183594 199.335938 248.320312 199.269531 248.457031 C 199.140625 248.652344 199.007812 248.847656 198.878906 249.035156 L 198.878906 249.195312 C 189.578125 266.054688 162.488281 264.46875 162.488281 264.46875 C 159.054688 252.652344 140.332031 250.914062 143.78125 262.789062 C 145.046875 267.140625 146.949219 273.683594 146.949219 273.683594 C 150.089844 282.441406 155.398438 281.597656 160.800781 280.753906 C 163.066406 280.398438 165.351562 280.046875 167.496094 280.398438 C 176.644531 281.90625 188.375 282.683594 195.113281 281.867188 C 196.277344 281.722656 201.191406 280.375 201.960938 279.703125 C 201.960938 279.710938 202.78125 279.359375 203.824219 279.011719 C 205.152344 278.566406 206.835938 278.121094 207.644531 278.414062 C 248.453125 293.402344 282.707031 284.929688 286.882812 257.253906 C 288.886719 243.988281 278.25 228.046875 265.324219 225.273438 " fill-opacity="1" fill-rule="nonzero"/><path fill="#ffffff" d="M 287.125 253.933594 C 287.125 253.714844 287.121094 253.496094 287.117188 253.273438 C 287.121094 253.273438 287.117188 253.273438 287.121094 253.273438 C 287.125 253.496094 287.128906 253.714844 287.125 253.933594 " fill-opacity="1" fill-rule="nonzero"/><path fill="#f7bc61" d="M 178.164062 262.933594 C 185.960938 260.472656 194.59375 256.929688 198.878906 249.164062 L 198.878906 249.195312 C 194.417969 257.28125 185.859375 261.125 178.164062 262.933594 M 198.878906 249.035156 L 198.878906 249.003906 C 199.007812 248.820312 199.140625 248.625 199.269531 248.429688 C 199.335938 248.292969 199.410156 248.15625 199.476562 248.011719 L 199.496094 248.085938 C 199.664062 247.832031 199.828125 247.566406 199.992188 247.300781 C 211.78125 227.898438 231.339844 223.289062 247.074219 223.289062 C 248.242188 223.289062 249.390625 223.3125 250.507812 223.359375 C 250.511719 223.367188 250.511719 223.378906 250.515625 223.390625 C 249.390625 223.34375 248.246094 223.316406 247.074219 223.316406 C 231.34375 223.316406 211.78125 227.925781 199.992188 247.328125 C 199.828125 247.597656 199.664062 247.859375 199.496094 248.113281 L 199.476562 248.042969 C 199.410156 248.183594 199.335938 248.320312 199.269531 248.457031 C 199.140625 248.652344 199.007812 248.847656 198.878906 249.035156 " fill-opacity="1" fill-rule="nonzero"/><path fill="#f39051" d="M 280.675781 235.882812 C 276.707031 230.589844 271.257812 226.546875 265.324219 225.273438 C 261.554688 224.460938 256.386719 223.632812 250.515625 223.390625 C 250.511719 223.378906 250.511719 223.367188 250.507812 223.359375 C 256.382812 223.605469 261.550781 224.433594 265.324219 225.242188 C 271.261719 226.519531 276.714844 230.570312 280.679688 235.863281 C 280.679688 235.867188 280.679688 235.878906 280.675781 235.882812 " fill-opacity="1" fill-rule="nonzero"/><path fill="#f7bc61" d="M 287.117188 253.273438 C 286.949219 247.238281 284.5 240.984375 280.675781 235.882812 C 280.679688 235.878906 280.679688 235.867188 280.679688 235.863281 C 284.511719 240.96875 286.953125 247.230469 287.121094 253.273438 C 287.117188 253.273438 287.121094 253.273438 287.117188 253.273438 " fill-opacity="1" fill-rule="nonzero"/><path fill="#f7bc61" d="M 165.113281 272.25 C 163.457031 272.25 162.488281 272.191406 162.488281 272.191406 C 161.042969 267.21875 169.03125 265.816406 178.164062 262.933594 C 185.859375 261.125 194.417969 257.28125 198.878906 249.195312 L 198.878906 249.035156 C 199.007812 248.847656 199.140625 248.652344 199.269531 248.457031 C 199.335938 248.320312 199.410156 248.183594 199.476562 248.042969 L 199.496094 248.113281 C 199.664062 247.859375 199.828125 247.597656 199.992188 247.328125 C 211.78125 227.925781 231.34375 223.316406 247.074219 223.316406 C 248.246094 223.316406 249.390625 223.34375 250.515625 223.390625 C 256.386719 223.632812 261.554688 224.460938 265.324219 225.273438 C 271.257812 226.546875 276.707031 230.589844 280.675781 235.882812 C 284.5 240.984375 286.949219 247.238281 287.117188 253.273438 C 287.121094 253.496094 287.125 253.714844 287.125 253.933594 C 287.125 255.042969 287.046875 256.144531 286.882812 257.226562 C 286.859375 257.386719 286.828125 257.550781 286.804688 257.710938 C 285.011719 246.441406 273.394531 235.515625 262.769531 233.234375 C 258.28125 232.265625 252.421875 231.28125 245.96875 231.28125 C 232.015625 231.28125 215.269531 235.890625 203.480469 255.300781 C 203.3125 255.570312 203.148438 255.828125 202.984375 256.085938 L 202.960938 256.015625 C 202.898438 256.15625 202.824219 256.292969 202.753906 256.429688 C 202.625 256.625 202.496094 256.820312 202.363281 257.007812 L 202.367188 257.164062 C 194.726562 271.015625 172.722656 272.25 165.113281 272.25 " fill-opacity="1" fill-rule="nonzero"/><path fill="#ffffff" d="M 179.519531 267.789062 C 179.214844 266.347656 178.816406 264.222656 178.4375 262.796875 C 170.242188 263.695312 162.488281 263.691406 162.488281 263.691406 C 158.988281 251.628906 139.582031 250.636719 143.097656 262.753906 C 144.394531 267.203125 146.335938 273.878906 146.335938 273.878906 C 150.882812 286.558594 160.125 279.832031 167.539062 281.050781 C 170.910156 281.605469 175.332031 281.945312 179.726562 281.78125 C 180.492188 277.136719 180.53125 272.589844 179.519531 267.789062 " fill-opacity="1" fill-rule="nonzero"/><path fill="#231f20" d="M 143.0625 257.792969 C 144.019531 257.339844 145.070312 257.230469 146.109375 257.304688 C 147.144531 257.390625 148.191406 257.695312 149.128906 258.242188 C 150.0625 258.785156 150.878906 259.582031 151.410156 260.527344 C 151.941406 261.46875 152.191406 262.542969 152.054688 263.585938 C 151.382812 262.78125 150.792969 262.082031 150.144531 261.492188 C 149.507812 260.902344 148.835938 260.417969 148.105469 259.988281 C 147.378906 259.5625 146.59375 259.195312 145.753906 258.847656 C 144.910156 258.496094 144.035156 258.175781 143.0625 257.792969 " fill-opacity="1" fill-rule="nonzero"/><path fill="#231f20" d="M 148.125 254.992188 C 148.9375 254.558594 149.878906 254.421875 150.8125 254.53125 C 151.742188 254.648438 152.6875 255.058594 153.425781 255.703125 C 154.171875 256.347656 154.691406 257.191406 154.972656 258.070312 C 155.25 258.949219 155.320312 259.847656 155.148438 260.753906 C 154.511719 260.074219 154.042969 259.394531 153.558594 258.796875 C 153.082031 258.195312 152.613281 257.675781 152.097656 257.226562 C 151.582031 256.78125 151.023438 256.398438 150.367188 256.050781 C 149.699219 255.699219 148.96875 255.402344 148.125 254.992188 " fill-opacity="1" fill-rule="nonzero"/><path fill="#231f20" d="M 143.722656 263.988281 C 144.535156 263.558594 145.476562 263.417969 146.40625 263.53125 C 147.34375 263.644531 148.285156 264.054688 149.023438 264.703125 C 149.769531 265.347656 150.289062 266.191406 150.566406 267.0625 C 150.847656 267.945312 150.917969 268.84375 150.746094 269.753906 C 150.109375 269.074219 149.644531 268.390625 149.15625 267.796875 C 148.679688 267.195312 148.207031 266.671875 147.691406 266.226562 C 147.183594 265.78125 146.625 265.398438 145.960938 265.050781 C 145.296875 264.695312 144.566406 264.398438 143.722656 263.988281 " fill-opacity="1" fill-rule="nonzero"/><path fill="#f3aa46" d="M 153.1875 202.144531 C 153.1875 210.886719 158.519531 217.816406 166.15625 232.640625 C 173.792969 247.464844 172.441406 254.597656 167.054688 267.175781 C 167.054688 267.175781 160.8125 265.890625 157.394531 271.894531 C 156.15625 274.074219 153.015625 281.777344 158.742188 281.777344 C 164.375 281.777344 175.589844 281.046875 178.902344 281.046875 C 183.84375 281.046875 185.636719 276.554688 185.636719 269.367188 C 185.636719 263.078125 197.824219 248.8125 194.957031 243.757812 C 190.703125 236.238281 189.90625 235.390625 191.085938 230.953125 C 193.585938 221.546875 198.257812 211.570312 198.667969 198.273438 C 199.003906 187.320312 189.234375 168.851562 173.722656 168.851562 C 162.617188 168.851562 153.1875 177.160156 153.1875 202.144531 " fill-opacity="1" fill-rule="nonzero"/><path fill="#ffffff" d="M 187.113281 260.25 C 184.4375 256.476562 181.753906 251.945312 177.125 250.339844 C 175.308594 249.707031 173.433594 249.460938 171.507812 249.347656 C 171.167969 254.945312 169.660156 259.714844 166.71875 266.582031 C 166.71875 266.582031 160.460938 265.894531 156.941406 272.085938 C 155.664062 274.335938 152.421875 282.28125 158.332031 282.28125 C 164.140625 282.28125 175.148438 282.308594 178.566406 282.308594 C 183.660156 282.308594 186.078125 276.894531 186.078125 269.476562 C 186.078125 267.59375 187.039062 264.402344 188.476562 261.558594 C 187.96875 260.9375 187.582031 260.90625 187.113281 260.25 " fill-opacity="1" fill-rule="nonzero"/><path fill="#231f20" d="M 157.453125 281.859375 C 157.28125 280.8125 157.472656 279.773438 157.832031 278.796875 C 158.203125 277.824219 158.792969 276.910156 159.578125 276.160156 C 160.359375 275.410156 161.351562 274.847656 162.410156 274.605469 C 163.457031 274.359375 164.558594 274.417969 165.523438 274.839844 C 164.5625 275.261719 163.726562 275.632812 162.980469 276.089844 C 162.238281 276.535156 161.585938 277.046875 160.96875 277.628906 C 160.355469 278.210938 159.785156 278.859375 159.21875 279.566406 C 158.648438 280.277344 158.089844 281.035156 157.453125 281.859375 " fill-opacity="1" fill-rule="nonzero"/><path fill="#231f20" d="M 156.175781 276.214844 C 155.992188 275.3125 156.117188 274.371094 156.480469 273.507812 C 156.851562 272.644531 157.511719 271.855469 158.339844 271.324219 C 159.164062 270.785156 160.125 270.523438 161.039062 270.5 C 161.960938 270.472656 162.84375 270.65625 163.671875 271.078125 C 162.839844 271.496094 162.054688 271.757812 161.347656 272.058594 C 160.632812 272.351562 160.003906 272.65625 159.433594 273.023438 C 158.863281 273.390625 158.335938 273.820312 157.816406 274.359375 C 157.292969 274.902344 156.800781 275.519531 156.175781 276.214844 " fill-opacity="1" fill-rule="nonzero"/><path fill="#231f20" d="M 163.925781 282.195312 C 163.738281 281.292969 163.867188 280.355469 164.234375 279.488281 C 164.605469 278.625 165.257812 277.835938 166.089844 277.304688 C 166.914062 276.765625 167.871094 276.503906 168.785156 276.480469 C 169.707031 276.453125 170.59375 276.636719 171.417969 277.058594 C 170.585938 277.476562 169.804688 277.738281 169.097656 278.039062 C 168.382812 278.332031 167.75 278.636719 167.179688 279.003906 C 166.605469 279.375 166.089844 279.804688 165.566406 280.34375 C 165.042969 280.878906 164.550781 281.496094 163.925781 282.195312 " fill-opacity="1" fill-rule="nonzero"/><path fill="#bdbcbc" d="M 154.792969 284.460938 C 151.875 284.460938 147.492188 284.460938 147.492188 284.460938 C 139.023438 283.933594 141.703125 277.246094 139.664062 272.972656 C 126.535156 245.515625 138.261719 222.933594 147.007812 224.554688 C 152.089844 225.5 155.320312 231.191406 154.371094 236.734375 C 153.03125 244.554688 150.816406 273.078125 150.816406 273.078125 C 158.726562 273.078125 162.742188 284.460938 154.792969 284.460938 " fill-opacity="1" fill-rule="nonzero"/><path fill="#231f20" d="M 158.746094 282.242188 C 158.851562 281.710938 158.738281 281.199219 158.539062 280.726562 C 158.328125 280.257812 158.003906 279.832031 157.589844 279.5 C 156.773438 278.832031 155.578125 278.574219 154.628906 279.070312 C 155.078125 279.363281 155.457031 279.585938 155.808594 279.820312 C 156.152344 280.046875 156.464844 280.273438 156.769531 280.519531 C 157.074219 280.765625 157.375 281.027344 157.691406 281.3125 C 158.011719 281.597656 158.339844 281.90625 158.746094 282.242188 " fill-opacity="1" fill-rule="nonzero"/><path fill="#231f20" d="M 155.898438 284.234375 C 156.101562 283.738281 156.082031 283.207031 155.957031 282.707031 C 155.828125 282.214844 155.558594 281.734375 155.183594 281.355469 C 154.429688 280.582031 153.246094 280.25 152.28125 280.683594 C 152.699219 281.007812 153.066406 281.253906 153.382812 281.507812 C 153.707031 281.757812 153.984375 282.007812 154.25 282.273438 C 154.511719 282.542969 154.765625 282.832031 155.03125 283.15625 L 155.898438 284.234375 " fill-opacity="1" fill-rule="nonzero"/><path fill="#ffffff" d="M 145.171875 202.28125 C 145.769531 204.917969 145.984375 207.671875 146.003906 210.339844 C 146.039062 216.207031 147.371094 247.578125 105.367188 264.0625 C 96.28125 267.628906 87.675781 272.652344 78.28125 275.042969 C 77.871094 275.148438 77.441406 275.261719 77.007812 275.375 C 77.589844 276.378906 78.214844 277.355469 78.914062 278.285156 L 132.457031 278.285156 C 141.453125 275.574219 154.882812 252.132812 154.882812 240.042969 C 154.882812 220.835938 154.882812 206.429688 154.882812 206.429688 L 145.171875 202.28125 " fill-opacity="1" fill-rule="nonzero"/><path fill="#bdbcbc" d="M 123.523438 193.027344 C 123.523438 193.027344 126.195312 207.855469 99.472656 219.558594 C 85.28125 225.773438 76.730469 237.445312 73.84375 249.53125 C 71.640625 247.875 69.035156 245.132812 70.234375 241.941406 C 70.617188 240.917969 71.140625 239.671875 71.742188 238.226562 C 74.042969 232.722656 77.1875 225.183594 78.027344 217.632812 C 79.417969 205.167969 73.582031 198.945312 68.441406 195.914062 C 66.457031 194.742188 63.894531 195.40625 62.71875 197.394531 C 61.550781 199.382812 62.214844 201.945312 64.199219 203.113281 C 73.9375 208.851562 69.21875 222.582031 64.03125 235.003906 C 63.394531 236.523438 62.84375 237.839844 62.410156 239.003906 C 58.730469 248.820312 67.492188 256.117188 72.753906 258.667969 C 72.742188 265.878906 74.785156 272.78125 78.914062 278.285156 L 132.457031 278.285156 C 141.453125 275.574219 154.882812 252.132812 154.882812 240.042969 C 154.882812 220.835938 154.882812 206.429688 154.882812 206.429688 L 123.523438 193.027344 " fill-opacity="1" fill-rule="nonzero"/><path fill="#bdbcbc" d="M 144.628906 284.460938 C 141.710938 284.460938 137.332031 284.460938 137.332031 284.460938 C 128.859375 283.933594 131.542969 277.246094 129.5 272.972656 C 116.378906 245.515625 128.097656 222.933594 136.839844 224.554688 C 141.925781 225.5 145.152344 231.191406 144.210938 236.734375 C 142.871094 244.554688 140.65625 273.078125 140.65625 273.078125 C 148.566406 273.078125 152.578125 284.460938 144.628906 284.460938 " fill-opacity="1" fill-rule="nonzero"/><path fill="#231f20" d="M 148.582031 282.242188 C 148.691406 281.710938 148.578125 281.199219 148.375 280.726562 C 148.164062 280.257812 147.839844 279.832031 147.429688 279.5 C 146.609375 278.832031 145.414062 278.574219 144.46875 279.070312 C 144.917969 279.363281 145.296875 279.585938 145.644531 279.820312 C 145.988281 280.046875 146.300781 280.273438 146.605469 280.519531 C 146.914062 280.765625 147.214844 281.027344 147.53125 281.3125 C 147.851562 281.597656 148.183594 281.90625 148.582031 282.242188 " fill-opacity="1" fill-rule="nonzero"/><path fill="#231f20" d="M 145.738281 284.234375 C 145.9375 283.738281 145.921875 283.207031 145.792969 282.707031 C 145.664062 282.214844 145.398438 281.734375 145.023438 281.355469 C 144.269531 280.582031 143.082031 280.25 142.117188 280.683594 C 142.539062 281.007812 142.90625 281.253906 143.222656 281.507812 C 143.542969 281.757812 143.816406 282.007812 144.089844 282.273438 C 144.351562 282.542969 144.601562 282.832031 144.867188 283.15625 L 145.738281 284.234375 " fill-opacity="1" fill-rule="nonzero"/><path fill="#bdbcbc" d="M 121.476562 173.75 C 121.476562 173.75 117.804688 157.480469 125.285156 152.394531 C 125.285156 152.394531 137.148438 154.578125 140.429688 163.675781 C 140.429688 163.675781 133.542969 172.734375 121.476562 173.75 " fill-opacity="1" fill-rule="nonzero"/><path fill="#ffffff" d="M 125.78125 171.96875 C 125.78125 171.96875 123.445312 161.636719 128.195312 158.40625 C 128.195312 158.40625 135.734375 159.792969 137.808594 165.570312 C 137.808594 165.570312 133.441406 171.324219 125.78125 171.96875 " fill-opacity="1" fill-rule="nonzero"/><path fill="#bdbcbc" d="M 169.746094 184.214844 C 169.746094 184.214844 179.828125 170.933594 175.125 163.207031 C 175.125 163.207031 163.425781 160.28125 156.675781 167.199219 C 156.675781 167.199219 159.191406 178.296875 169.746094 184.214844 " fill-opacity="1" fill-rule="nonzero"/><path fill="#ffffff" d="M 166.570312 180.816406 C 166.570312 180.816406 172.976562 172.378906 169.992188 167.472656 C 169.992188 167.472656 162.558594 165.613281 158.269531 170.007812 C 158.269531 170.007812 159.867188 177.054688 166.570312 180.816406 " fill-opacity="1" fill-rule="nonzero"/><path fill="#bdbcbc" d="M 115.546875 182.621094 C 109.996094 195.574219 123.972656 204.164062 139.402344 207.511719 C 154.835938 210.855469 171.839844 208.804688 171.429688 194.738281 C 170.953125 178.714844 160.734375 166.261719 148.902344 163.699219 C 137.078125 161.132812 122.089844 167.359375 115.546875 182.621094 " fill-opacity="1" fill-rule="nonzero"/><path fill="#ffffff" d="M 144.445312 184.605469 C 157.496094 187.4375 166.640625 196.324219 164.882812 204.453125 C 164.714844 205.203125 164.464844 205.914062 164.140625 206.59375 C 157.839844 209.574219 148.355469 209.449219 139.402344 207.511719 C 130.359375 205.546875 121.820312 201.78125 117.414062 196.398438 C 117.402344 195.667969 117.472656 194.929688 117.632812 194.207031 C 119.390625 186.078125 131.398438 181.777344 144.445312 184.605469 " fill-opacity="1" fill-rule="nonzero"/><path fill="#231f20" d="M 129.082031 177.746094 C 128.601562 179.582031 129.15625 181.320312 130.324219 181.628906 C 131.492188 181.925781 132.828125 180.683594 133.304688 178.847656 C 133.789062 177.011719 133.230469 175.273438 132.0625 174.96875 C 130.898438 174.664062 129.5625 175.90625 129.082031 177.746094 " fill-opacity="1" fill-rule="nonzero"/><path fill="#231f20" d="M 159.785156 185.761719 C 159.300781 187.597656 159.859375 189.335938 161.027344 189.640625 C 162.191406 189.945312 163.527344 188.703125 164.003906 186.863281 C 164.488281 185.027344 163.925781 183.289062 162.761719 182.988281 C 161.597656 182.683594 160.261719 183.925781 159.785156 185.761719 " fill-opacity="1" fill-rule="nonzero"/><path fill="#f8a3d6" d="M 143.296875 202.730469 L 143.042969 203.839844 C 142.75 205.085938 141.507812 205.863281 140.257812 205.574219 C 139.011719 205.28125 138.238281 204.039062 138.527344 202.792969 L 138.769531 201.746094 C 138.769531 201.746094 139.894531 201.632812 140.664062 200.800781 C 141.476562 199.921875 141.765625 199.703125 142.082031 200.914062 C 142.433594 202.289062 143.296875 202.730469 143.296875 202.730469 " fill-opacity="1" fill-rule="nonzero"/><path fill="#231f20" d="M 147.1875 198.441406 L 146.984375 198.417969 C 146.5625 198.417969 146.199219 198.707031 146.105469 199.121094 L 145.734375 200.707031 C 145.65625 201.039062 145.476562 201.320312 145.230469 201.492188 C 144.886719 201.726562 144.421875 201.773438 143.816406 201.632812 C 143.277344 201.507812 142.964844 201.207031 142.804688 200.652344 C 142.648438 200.109375 142.710938 199.535156 142.746094 199.292969 C 142.78125 199.195312 142.800781 199.105469 142.8125 199.054688 L 144.261719 192.804688 L 144.339844 192.328125 L 142.589844 191.925781 L 141.035156 198.644531 L 140.996094 198.828125 C 140.898438 199.179688 140.699219 199.679688 140.335938 200.082031 C 139.945312 200.507812 139.535156 200.636719 138.996094 200.515625 C 138.425781 200.382812 138.027344 200.140625 137.816406 199.804688 C 137.59375 199.441406 137.636719 199.042969 137.683594 198.839844 L 138.046875 197.253906 C 138.105469 197.023438 138.066406 196.777344 137.9375 196.570312 C 137.808594 196.363281 137.609375 196.222656 137.367188 196.164062 C 136.890625 196.054688 136.394531 196.363281 136.285156 196.84375 L 135.917969 198.425781 C 135.574219 199.910156 136.269531 201.742188 138.589844 202.28125 C 139.5625 202.503906 140.503906 202.300781 141.265625 201.6875 C 141.679688 202.566406 142.421875 203.171875 143.40625 203.398438 C 143.761719 203.480469 144.105469 203.519531 144.429688 203.519531 C 145.300781 203.519531 145.90625 203.230469 146.261719 202.980469 C 147.09375 202.398438 147.394531 201.5625 147.5 201.117188 L 147.863281 199.53125 C 147.976562 199.046875 147.675781 198.558594 147.1875 198.441406 " fill-opacity="1" fill-rule="nonzero"/><path fill="#231f20" d="M 136.699219 189.808594 C 136.132812 192.234375 138.753906 194.917969 142.539062 195.796875 C 146.335938 196.679688 149.867188 195.421875 150.425781 192.992188 C 150.988281 190.566406 148.375 187.878906 144.582031 187.003906 C 140.792969 186.121094 137.261719 187.378906 136.699219 189.808594 " fill-opacity="1" fill-rule="nonzero"/><path fill="#231f20" d="M 135.464844 187.195312 C 135.609375 187.195312 135.753906 187.132812 135.847656 187.007812 C 136.019531 186.792969 135.984375 186.480469 135.769531 186.3125 C 135.632812 186.203125 122.152344 175.675781 108.695312 175.832031 C 108.421875 175.835938 108.199219 176.058594 108.203125 176.332031 C 108.207031 176.605469 108.433594 176.820312 108.699219 176.820312 L 108.707031 176.820312 C 108.808594 176.820312 108.914062 176.820312 109.015625 176.820312 C 122.007812 176.820312 135.027344 186.984375 135.15625 187.089844 C 135.246094 187.160156 135.355469 187.195312 135.464844 187.195312 " fill-opacity="1" fill-rule="nonzero"/><path fill="#231f20" d="M 134.355469 188.492188 C 134.527344 188.492188 134.695312 188.402344 134.785156 188.242188 C 134.921875 188.003906 134.839844 187.699219 134.605469 187.566406 C 134.445312 187.476562 118.582031 178.476562 104.816406 179.175781 C 104.542969 179.1875 104.335938 179.421875 104.347656 179.695312 C 104.363281 179.964844 104.601562 180.179688 104.863281 180.160156 C 118.339844 179.472656 133.957031 188.335938 134.113281 188.425781 C 134.191406 188.46875 134.273438 188.492188 134.355469 188.492188 " fill-opacity="1" fill-rule="nonzero"/><path fill="#231f20" d="M 133.894531 190.164062 C 134.074219 190.164062 134.25 190.066406 134.335938 189.890625 C 134.457031 189.648438 134.359375 189.351562 134.121094 189.226562 C 133.992188 189.160156 121.183594 182.761719 106.210938 183.660156 C 105.9375 183.675781 105.730469 183.910156 105.742188 184.183594 C 105.761719 184.457031 106 184.667969 106.265625 184.648438 C 120.960938 183.773438 133.546875 190.046875 133.671875 190.113281 C 133.738281 190.148438 133.820312 190.164062 133.894531 190.164062 " fill-opacity="1" fill-rule="nonzero"/><path fill="#231f20" d="M 133.636719 191.816406 C 133.851562 191.816406 134.046875 191.679688 134.113281 191.46875 C 134.191406 191.207031 134.046875 190.929688 133.789062 190.851562 C 133.664062 190.8125 121.40625 187.058594 110.757812 188.140625 C 110.488281 188.167969 110.289062 188.410156 110.316406 188.683594 C 110.347656 188.957031 110.582031 189.15625 110.859375 189.125 C 121.308594 188.0625 133.371094 191.757812 133.492188 191.792969 L 133.636719 191.816406 " fill-opacity="1" fill-rule="nonzero"/><path fill="#231f20" d="M 180.308594 198.496094 C 180.464844 198.496094 180.621094 198.421875 180.71875 198.28125 C 180.875 198.058594 180.820312 197.75 180.59375 197.59375 C 169.511719 189.976562 152.433594 191.230469 152.265625 191.242188 C 151.992188 191.265625 151.789062 191.503906 151.808594 191.777344 C 151.832031 192.046875 152.058594 192.25 152.34375 192.230469 C 152.503906 192.21875 169.246094 190.992188 180.035156 198.410156 C 180.117188 198.46875 180.214844 198.496094 180.308594 198.496094 " fill-opacity="1" fill-rule="nonzero"/><path fill="#231f20" d="M 181.546875 203.398438 C 181.699219 203.398438 181.847656 203.332031 181.941406 203.203125 C 182.109375 202.984375 182.0625 202.671875 181.84375 202.511719 C 170.792969 194.269531 152.601562 192.925781 152.417969 192.914062 C 152.148438 192.898438 151.910156 193.097656 151.890625 193.371094 C 151.875 193.644531 152.082031 193.882812 152.355469 193.898438 C 152.53125 193.910156 170.4375 195.234375 181.25 203.304688 C 181.339844 203.367188 181.445312 203.398438 181.546875 203.398438 " fill-opacity="1" fill-rule="nonzero"/><path fill="#231f20" d="M 177.925781 206.429688 C 178.078125 206.429688 178.226562 206.359375 178.324219 206.230469 C 178.488281 206.011719 178.445312 205.703125 178.226562 205.539062 C 166.285156 196.476562 152.082031 194.660156 151.933594 194.640625 C 151.664062 194.609375 151.417969 194.800781 151.386719 195.070312 C 151.351562 195.34375 151.546875 195.589844 151.820312 195.621094 C 151.957031 195.640625 165.910156 197.429688 177.628906 206.324219 C 177.71875 206.398438 177.820312 206.429688 177.925781 206.429688 " fill-opacity="1" fill-rule="nonzero"/><path fill="#231f20" d="M 171.472656 207.539062 C 171.617188 207.539062 171.757812 207.480469 171.855469 207.359375 C 172.027344 207.152344 171.996094 206.839844 171.789062 206.664062 C 163.546875 199.839844 151.269531 196.140625 151.148438 196.105469 C 150.882812 196.023438 150.609375 196.175781 150.53125 196.441406 C 150.453125 196.699219 150.601562 196.976562 150.863281 197.054688 C 150.984375 197.089844 163.070312 200.730469 171.15625 207.425781 C 171.246094 207.503906 171.359375 207.539062 171.472656 207.539062 " fill-opacity="1" fill-rule="nonzero"/><path fill="#bdbcbc" d="M 82.800781 253.417969 C 89.664062 251.789062 106.050781 250.035156 114.394531 265.210938 C 114.46875 265.351562 114.546875 265.496094 114.628906 265.628906 L 114.640625 265.589844 C 114.671875 265.667969 114.703125 265.742188 114.738281 265.816406 C 114.804688 265.917969 114.863281 266.023438 114.929688 266.121094 L 114.929688 266.207031 C 119.421875 275.21875 132.527344 274.371094 132.527344 274.371094 C 134.183594 268.054688 143.234375 267.125 141.570312 273.472656 C 140.957031 275.800781 140.035156 279.296875 140.035156 279.296875 C 138.519531 283.980469 135.949219 283.527344 133.339844 283.074219 C 132.246094 282.886719 131.140625 282.695312 130.101562 282.886719 C 125.679688 283.691406 120.007812 284.105469 116.75 283.671875 C 116.1875 283.59375 113.808594 282.875 113.4375 282.511719 C 113.4375 282.519531 113.039062 282.332031 112.535156 282.144531 C 111.894531 281.90625 111.078125 281.667969 110.691406 281.824219 C 90.957031 289.835938 74.394531 285.308594 72.378906 270.515625 C 71.40625 263.421875 76.550781 254.90625 82.800781 253.417969 " fill-opacity="1" fill-rule="nonzero"/><path fill="#ffffff" d="M 72.261719 268.738281 C 72.261719 267.078125 72.558594 265.375 73.09375 263.734375 C 73.09375 263.738281 73.09375 263.742188 73.09375 263.746094 C 72.558594 265.382812 72.261719 267.082031 72.261719 268.738281 " fill-opacity="1" fill-rule="nonzero"/><path fill="#cdcccc" d="M 129.886719 274.332031 C 129.269531 274.292969 128.570312 274.226562 127.8125 274.117188 C 128.523438 274.21875 129.21875 274.285156 129.886719 274.332031 M 122.398438 272.722656 C 119.460938 271.546875 116.601562 269.554688 114.929688 266.207031 L 114.929688 266.121094 C 114.863281 266.023438 114.804688 265.917969 114.738281 265.816406 C 114.703125 265.742188 114.671875 265.667969 114.640625 265.589844 L 114.628906 265.628906 C 114.546875 265.496094 114.46875 265.351562 114.394531 265.210938 C 108.691406 254.839844 99.234375 252.375 91.625 252.375 C 88.101562 252.375 84.972656 252.90625 82.800781 253.417969 C 78.492188 254.445312 74.710938 258.808594 73.09375 263.746094 C 73.09375 263.742188 73.09375 263.738281 73.09375 263.734375 C 74.710938 258.796875 78.492188 254.429688 82.800781 253.40625 C 84.972656 252.890625 88.101562 252.359375 91.625 252.359375 C 99.234375 252.359375 108.691406 254.820312 114.394531 265.195312 C 114.46875 265.335938 114.546875 265.476562 114.628906 265.613281 L 114.640625 265.578125 C 114.671875 265.652344 114.703125 265.722656 114.738281 265.800781 C 114.804688 265.902344 114.863281 266.007812 114.929688 266.109375 L 114.929688 266.191406 C 116.335938 269.007812 118.589844 270.894531 121.144531 272.15625 C 121.566406 272.363281 121.980469 272.550781 122.398438 272.722656 " fill-opacity="1" fill-rule="nonzero"/><path fill="#cdcccc" d="M 124.121094 276.675781 C 120.332031 276.675781 116.078125 275.316406 113.242188 270.46875 L 113.242188 270.382812 C 113.179688 270.28125 113.117188 270.179688 113.050781 270.078125 C 113.023438 270 112.988281 269.929688 112.953125 269.851562 L 112.945312 269.890625 C 112.867188 269.75 112.785156 269.613281 112.707031 269.472656 C 107.007812 259.097656 98.90625 256.632812 92.160156 256.632812 C 89.039062 256.632812 86.203125 257.160156 84.03125 257.675781 C 78.898438 258.894531 73.277344 264.734375 72.414062 270.761719 C 72.398438 270.671875 72.386719 270.585938 72.378906 270.5 C 72.296875 269.921875 72.261719 269.332031 72.261719 268.738281 C 72.261719 267.082031 72.558594 265.382812 73.09375 263.746094 C 74.710938 258.808594 78.492188 254.445312 82.800781 253.417969 C 84.972656 252.90625 88.101562 252.375 91.625 252.375 C 99.234375 252.375 108.691406 254.839844 114.394531 265.210938 C 114.46875 265.351562 114.546875 265.496094 114.628906 265.628906 L 114.640625 265.589844 C 114.671875 265.667969 114.703125 265.742188 114.738281 265.816406 C 114.804688 265.917969 114.863281 266.023438 114.929688 266.121094 L 114.929688 266.207031 C 116.601562 269.554688 119.460938 271.546875 122.398438 272.722656 C 124.246094 273.472656 126.078125 273.882812 127.8125 274.117188 C 128.570312 274.226562 129.269531 274.292969 129.886719 274.332031 C 130.804688 274.402344 131.675781 274.4375 132.492188 274.464844 C 133.011719 274.484375 128.941406 276.675781 124.121094 276.675781 " fill-opacity="1" fill-rule="nonzero"/><path fill="#231f20" d="M 141.914062 270.804688 C 141.453125 270.558594 140.945312 270.5 140.445312 270.542969 C 139.941406 270.589844 139.4375 270.753906 138.988281 271.042969 C 138.53125 271.335938 138.136719 271.757812 137.878906 272.265625 C 137.625 272.769531 137.5 273.34375 137.570312 273.898438 C 137.894531 273.46875 138.175781 273.09375 138.492188 272.78125 C 138.800781 272.464844 139.125 272.203125 139.476562 271.976562 C 139.832031 271.75 140.210938 271.550781 140.613281 271.367188 C 141.019531 271.179688 141.445312 271.007812 141.914062 270.804688 " fill-opacity="1" fill-rule="nonzero"/><path fill="#231f20" d="M 139.46875 269.304688 C 139.074219 269.078125 138.621094 269 138.167969 269.058594 C 137.71875 269.121094 137.261719 269.339844 136.902344 269.6875 C 136.542969 270.027344 136.292969 270.484375 136.15625 270.949219 C 136.023438 271.417969 135.984375 271.902344 136.074219 272.386719 C 136.382812 272.023438 136.605469 271.660156 136.839844 271.339844 C 137.070312 271.019531 137.296875 270.742188 137.546875 270.5 C 137.796875 270.261719 138.070312 270.058594 138.386719 269.875 C 138.710938 269.683594 139.0625 269.523438 139.46875 269.304688 " fill-opacity="1" fill-rule="nonzero"/><path fill="#231f20" d="M 141.597656 274.117188 C 141.207031 273.886719 140.75 273.8125 140.300781 273.871094 C 139.847656 273.933594 139.394531 274.152344 139.035156 274.496094 C 138.671875 274.839844 138.425781 275.292969 138.289062 275.757812 C 138.152344 276.230469 138.117188 276.707031 138.199219 277.195312 C 138.507812 276.832031 138.734375 276.46875 138.972656 276.148438 C 139.199219 275.828125 139.429688 275.550781 139.679688 275.3125 C 139.921875 275.074219 140.191406 274.871094 140.515625 274.683594 C 140.835938 274.492188 141.1875 274.332031 141.597656 274.117188 " fill-opacity="1" fill-rule="nonzero"/></svg>