<svg xmlns="http://www.w3.org/2000/svg" xmlns:xlink="http://www.w3.org/1999/xlink" width="500" zoomAndPan="magnify" viewBox="0 0 375 374.999991" height="500" preserveAspectRatio="xMidYMid meet" version="1.0"><defs><clipPath id="369b5fcda0"><path d="M 98 152 L 270 152 L 270 312.882812 L 98 312.882812 Z M 98 152 " clip-rule="nonzero"/></clipPath><clipPath id="9fbac6d089"><path d="M 113 62.382812 L 184 62.382812 L 184 155 L 113 155 Z M 113 62.382812 " clip-rule="nonzero"/></clipPath></defs><path fill="#f4ede6" d="M 207.421875 150.292969 C 213.363281 154.863281 221.636719 157.777344 229.527344 157.777344 C 235.84375 157.777344 241.910156 155.914062 246.34375 151.535156 C 246.667969 151.21875 246.980469 150.890625 247.273438 150.554688 C 258.90625 141.625 258.144531 120.929688 255.066406 108.195312 C 252.773438 98.695312 248.300781 89.214844 243.511719 80.578125 C 239 72.445312 230.179688 65.183594 220.828125 65.183594 C 215.507812 65.183594 210.011719 67.519531 205.027344 73.382812 C 194.179688 86.125 192.199219 105.921875 192.8125 118.316406 C 193.394531 130.066406 197.300781 142.5 207.421875 150.292969 Z M 212.09375 144.226562 C 209.109375 141.90625 206.730469 139.070312 204.964844 135.726562 C 206.6875 137.523438 208.394531 139.335938 210.015625 141.222656 C 211.113281 142.492188 212.175781 143.773438 213.226562 145.039062 C 212.847656 144.773438 212.457031 144.511719 212.089844 144.226562 Z M 243.25 143.914062 C 243.144531 143.796875 243.042969 143.671875 242.9375 143.546875 C 242.804688 143.214844 242.628906 142.914062 242.402344 142.636719 C 240.636719 140.523438 238.832031 138.457031 236.984375 136.429688 C 230.726562 128.6875 224.820312 120.664062 218.738281 112.777344 C 216.109375 109.394531 213.246094 106.210938 210.640625 102.8125 C 210.445312 102.566406 210.199219 102.257812 209.910156 101.90625 C 213.265625 105.644531 216.914062 109.144531 220.480469 112.691406 C 229.375 121.507812 236.90625 131.476562 244.90625 141.082031 C 245.03125 141.226562 245.164062 141.359375 245.3125 141.484375 C 244.726562 142.378906 244.035156 143.191406 243.246094 143.914062 Z M 248.75 116.175781 C 248.8125 116.652344 248.898438 117.121094 248.949219 117.597656 C 248.65625 117.207031 248.347656 116.828125 248.054688 116.429688 C 248.292969 116.371094 248.523438 116.28125 248.746094 116.167969 Z M 248.65625 132.382812 C 248.496094 133.277344 248.324219 134.164062 248.105469 135.011719 C 241.460938 126.96875 235.035156 118.789062 227.890625 111.171875 C 228.472656 111.6875 229.023438 112.214844 229.605469 112.726562 C 236.507812 118.753906 241.410156 126.71875 248.652344 132.375 Z M 236.820312 84.289062 C 238.59375 87.5 240.144531 90.523438 241.515625 93.425781 C 239.398438 91.089844 237.261719 88.753906 235.078125 86.449219 C 231.851562 83.0625 228.332031 79.9375 224.960938 76.695312 C 223.535156 75.328125 222.300781 74.015625 220.972656 72.847656 C 227.261719 72.945312 233.691406 78.644531 236.820312 84.289062 Z M 213.765625 75.53125 C 213.976562 75.679688 214.203125 75.804688 214.445312 75.902344 C 217.898438 77.320312 221.199219 81.929688 223.878906 84.472656 C 226.695312 87.136719 229.488281 89.8125 232.164062 92.625 C 234.402344 94.976562 236.585938 97.386719 238.753906 99.8125 C 236.238281 97.277344 233.6875 94.777344 231.011719 92.402344 C 229.296875 90.921875 227.5 89.546875 225.621094 88.277344 C 221.949219 83.742188 218.085938 79.402344 213.554688 75.6875 Z M 208.386719 81.730469 C 211.84375 86.449219 216.707031 89.816406 221.503906 93.144531 C 223.714844 95.929688 225.839844 98.777344 227.984375 101.550781 C 229.046875 102.925781 230.128906 104.277344 231.21875 105.636719 C 223.09375 98.425781 215.457031 90.679688 207.410156 83.378906 C 207.71875 82.8125 208.042969 82.265625 208.378906 81.730469 Z M 213.675781 121.957031 C 220.289062 128.015625 226.691406 134.421875 232.691406 141.132812 C 234.5625 143.46875 236.457031 145.765625 238.410156 148.023438 C 237.585938 148.488281 236.726562 148.867188 235.832031 149.160156 C 224.183594 139.410156 215.503906 126.921875 206.023438 115.175781 C 208.570312 117.464844 211.175781 119.671875 213.667969 121.957031 Z M 226.425781 149.210938 C 221.671875 145.910156 218.199219 141.113281 214.527344 136.710938 C 210.238281 131.566406 205.191406 127.121094 200.972656 121.910156 C 200.910156 121.832031 200.835938 121.777344 200.769531 121.707031 C 200.632812 120.570312 200.539062 119.460938 200.476562 118.398438 C 208.96875 128.808594 216.742188 139.875 226.417969 149.210938 Z M 226.425781 149.210938 " fill-opacity="1" fill-rule="nonzero"/><g clip-path="url(#369b5fcda0)"><path fill="#f4ede6" d="M 249.507812 213.382812 C 240.578125 198.1875 229.582031 179.625 214.894531 167.570312 C 211.910156 163.886719 208.488281 160.675781 204.625 157.933594 C 199.605469 154.429688 193.75 152.863281 187.820312 152.863281 C 184.269531 152.878906 180.796875 153.398438 177.398438 154.425781 C 169.921875 156.660156 163.722656 161.550781 158.582031 167.296875 C 156.464844 169.113281 154.496094 170.945312 152.699219 172.589844 C 149.863281 175.191406 136.0625 192.394531 133.09375 196.457031 C 121.421875 212.386719 108.726562 227.765625 102.121094 246.648438 C 100.890625 250.171875 99.960938 253.773438 99.328125 257.453125 C 98.949219 257.875 98.71875 258.367188 98.636719 258.929688 C 98.550781 259.492188 98.632812 260.027344 98.871094 260.542969 C 97.160156 274.371094 99.835938 289.046875 110.039062 298.792969 C 117.347656 305.773438 128.351562 309.335938 138.054688 311.285156 C 142.78125 312.246094 147.554688 312.734375 152.375 312.742188 C 158.710938 312.746094 164.925781 311.886719 171.023438 310.171875 C 176.074219 308.75 181.023438 307.070312 186.199219 306.125 C 187.957031 305.8125 189.730469 305.660156 191.515625 305.671875 C 195.578125 305.671875 199.6875 306.359375 203.621094 307.078125 C 211.632812 308.539062 219.492188 310.082031 227.488281 310.082031 C 230.472656 310.089844 233.441406 309.855469 236.386719 309.378906 C 243.589844 308.175781 251.398438 304.75 257.308594 299.851562 C 257.871094 299.585938 258.398438 299.261719 258.890625 298.878906 C 264.433594 294.539062 267.292969 286.015625 268.519531 279.316406 C 269.921875 271.726562 269.351562 264.058594 267.886719 256.519531 C 264.898438 241.1875 257.351562 226.734375 249.507812 213.382812 Z M 260.117188 256.789062 C 260.203125 257.183594 260.304688 257.574219 260.378906 257.96875 C 260.488281 258.527344 260.574219 259.066406 260.671875 259.609375 C 259.101562 257.914062 257.460938 256.28125 256.09375 254.6875 C 257.421875 255.414062 258.765625 256.113281 260.117188 256.789062 Z M 249.535156 229.140625 C 251.601562 233.117188 253.574219 237.234375 255.292969 241.453125 C 254.417969 240.207031 253.644531 239 253.042969 238.265625 C 249.65625 234.191406 246.066406 230.308594 242.269531 226.609375 C 241.882812 226.230469 241.484375 225.859375 241.101562 225.476562 C 243.789062 227.121094 246.457031 228.515625 249.535156 229.152344 Z M 248.84375 243.195312 C 247.472656 242.355469 246.109375 241.503906 244.757812 240.636719 C 239.890625 235.074219 234.722656 229.804688 229.257812 224.832031 C 223.398438 219.5 217.582031 214.121094 211.808594 208.691406 C 214.207031 210.285156 216.609375 211.867188 219.035156 213.414062 C 225.871094 219.835938 232.753906 226.21875 239.464844 232.789062 C 242.792969 236.078125 245.863281 239.59375 248.84375 243.195312 Z M 173.117188 202.480469 C 177.492188 205.183594 181.929688 207.757812 186.378906 210.324219 C 192.84375 217.183594 198.925781 224.46875 205.039062 231.597656 C 209.300781 236.5625 213.421875 241.660156 217.554688 246.742188 C 215.300781 244.542969 213.078125 242.335938 210.917969 240.117188 C 201.332031 230.265625 191.511719 220.644531 181.730469 210.988281 C 178.585938 207.886719 175.292969 204.832031 171.992188 201.753906 C 172.363281 202 172.738281 202.242188 173.117188 202.480469 Z M 172.585938 184.546875 C 176.601562 186.777344 180.582031 189.078125 184.523438 191.441406 C 185.417969 192.300781 186.3125 193.160156 187.214844 194.019531 C 196.578125 202.988281 205.929688 211.957031 215.429688 220.773438 C 212.640625 218.875 209.835938 217.003906 207.011719 215.160156 C 203.21875 212.6875 199.304688 210.347656 195.382812 208.058594 C 194.25 206.988281 193.121094 205.914062 192.007812 204.820312 C 187.078125 199.996094 182.601562 194.710938 177.894531 189.671875 C 176.230469 187.878906 174.421875 186.222656 172.585938 184.546875 Z M 200.242188 164.230469 C 203.535156 166.570312 206.453125 169.3125 209 172.453125 C 209.316406 172.835938 209.664062 173.183594 210.050781 173.5 C 214.492188 177.148438 218.59375 181.488281 222.40625 186.175781 C 219.941406 183.855469 217.484375 181.53125 215.082031 179.140625 C 209.863281 173.9375 203.527344 169.273438 198.957031 163.40625 C 199.394531 163.644531 199.8125 163.9375 200.242188 164.230469 Z M 187.820312 160.523438 C 189.222656 160.527344 190.613281 160.648438 191.996094 160.894531 C 191.214844 161.769531 190.953125 163.050781 191.816406 164.355469 C 192.171875 164.902344 192.566406 165.417969 192.945312 165.941406 C 190.535156 164.289062 188.097656 162.589844 186.15625 160.589844 C 186.710938 160.554688 187.265625 160.523438 187.820312 160.523438 Z M 213.984375 196.4375 C 221.773438 202.710938 231.097656 208.730469 237.917969 216.464844 C 235.582031 215.351562 233.203125 214.320312 230.914062 213.125 C 228.328125 211.777344 225.824219 210.285156 223.359375 208.730469 C 222.066406 207.515625 220.765625 206.300781 219.480469 205.078125 C 211.695312 197.671875 203.867188 190.304688 195.867188 183.136719 C 192.40625 180.035156 188.683594 177.035156 185.304688 173.742188 C 194.917969 181.238281 204.476562 188.800781 213.984375 196.433594 Z M 171.640625 165.75 C 171.660156 166.277344 171.796875 166.765625 172.054688 167.226562 C 176.378906 175.054688 183.460938 180.535156 190.015625 186.398438 C 191.015625 187.289062 192 188.191406 192.984375 189.089844 C 191.351562 188.089844 189.714844 187.101562 188.074219 186.128906 C 181.722656 180.039062 175.488281 173.800781 170.152344 166.84375 C 170.648438 166.441406 171.144531 166.101562 171.640625 165.75 Z M 164.277344 172.40625 C 164.675781 171.960938 165.074219 171.550781 165.472656 171.132812 C 166.585938 172.554688 167.738281 173.929688 168.910156 175.296875 C 167.261719 174.417969 165.601562 173.582031 163.949219 172.742188 C 164.050781 172.628906 164.171875 172.527344 164.277344 172.40625 Z M 156.398438 179.644531 C 156.464844 179.765625 156.539062 179.882812 156.621094 179.996094 C 158.761719 182.71875 161.0625 185.289062 163.441406 187.785156 C 160.390625 185.632812 157.238281 183.671875 153.808594 182.3125 C 154.652344 181.402344 155.515625 180.511719 156.402344 179.648438 Z M 143.605469 195.042969 C 147.222656 198.605469 150.292969 202.699219 153.976562 206.242188 C 158.125 210.226562 162.589844 213.875 166.847656 217.742188 C 167.09375 217.96875 167.347656 218.191406 167.589844 218.414062 C 173.671875 225.625 179.902344 232.648438 185.339844 240.417969 C 182.421875 238.492188 179.503906 236.5625 176.585938 234.621094 C 174.21875 232.578125 171.855469 230.523438 169.492188 228.464844 C 167.449219 226.320312 165.40625 224.167969 163.363281 222.042969 C 155.777344 214.226562 149.503906 205.253906 141.769531 197.566406 C 142.382812 196.707031 142.992188 195.882812 143.605469 195.042969 Z M 145.601562 218.800781 C 149.550781 222.1875 153.378906 225.648438 157.546875 228.765625 C 160.941406 231.308594 164.386719 233.789062 167.878906 236.207031 C 172.644531 241.214844 177.433594 246.210938 182.070312 251.351562 C 189.949219 260.074219 197.355469 269.25 204.894531 278.308594 C 204.582031 278.042969 204.265625 277.773438 203.953125 277.507812 C 195.042969 269.917969 186.769531 261.816406 178.269531 253.761719 C 169.921875 245.847656 161.34375 238.171875 153.390625 229.863281 C 147.496094 223.714844 139.316406 218.101562 134.5625 210.90625 C 138.726562 212.089844 142.457031 216.101562 145.605469 218.804688 Z M 196.566406 244.585938 C 201.355469 249.007812 206.054688 253.515625 210.574219 258.191406 C 208.351562 256.460938 206.097656 254.757812 203.816406 253.089844 C 201.34375 250.3125 198.921875 247.496094 196.570312 244.589844 Z M 120.257812 227.511719 C 123.175781 233.351562 128.589844 237.816406 133.367188 242.113281 C 140.742188 248.726562 147.164062 256.460938 153.972656 263.683594 L 153.160156 262.867188 C 147.363281 257.058594 141.777344 251.066406 135.707031 245.527344 C 130.859375 241.097656 122.484375 236.878906 120.191406 230.46875 C 120.003906 229.933594 119.699219 229.480469 119.273438 229.109375 C 119.601562 228.566406 119.925781 228.035156 120.257812 227.511719 Z M 143.546875 262.132812 C 137.003906 256.464844 130.277344 251.035156 123.308594 245.863281 C 122.207031 244.066406 121.078125 242.285156 119.921875 240.519531 C 121.824219 242.308594 123.933594 243.925781 126.050781 245.5625 C 132.363281 250.480469 137.972656 256.363281 143.546875 262.132812 Z M 109.339844 249.195312 L 109.367188 249.128906 C 116.058594 256.539062 123.179688 263.554688 130.261719 270.59375 C 131.15625 272.191406 132.054688 273.789062 132.960938 275.386719 C 124.523438 268.085938 116.632812 260.234375 108.191406 252.875 C 108.542969 251.597656 108.925781 250.363281 109.339844 249.195312 Z M 107.257812 275.433594 C 107.023438 275.332031 106.785156 275.257812 106.535156 275.207031 C 106.441406 274.574219 106.335938 273.9375 106.269531 273.296875 C 106.6875 273.660156 107.089844 274.039062 107.496094 274.417969 C 107.859375 274.96875 108.222656 275.519531 108.589844 276.070312 C 108.144531 275.84375 107.707031 275.621094 107.253906 275.421875 Z M 115.324219 293.28125 C 112.371094 290.417969 110.152344 287.074219 108.667969 283.238281 C 111.78125 284.988281 114.792969 286.898438 117.703125 288.964844 C 120.585938 292.789062 123.601562 296.515625 126.75 300.148438 C 121.949219 298.25 118.128906 295.949219 115.320312 293.269531 Z M 139.546875 303.789062 C 138.070312 303.5 136.652344 303.171875 135.28125 302.832031 C 135.574219 302.136719 135.609375 301.429688 135.378906 300.710938 C 137.058594 301.765625 138.726562 302.828125 140.367188 303.921875 C 140.097656 303.886719 139.824219 303.847656 139.554688 303.796875 Z M 132.835938 289.453125 C 126.796875 285.140625 121.480469 280.285156 116.296875 274.992188 C 115.421875 274.089844 114.542969 273.160156 113.667969 272.226562 C 111.214844 268.527344 108.832031 264.777344 106.519531 260.976562 C 106.558594 260.65625 106.589844 260.332031 106.640625 260.011719 C 117.019531 269.355469 126.695312 279.382812 138.011719 287.667969 C 139.457031 288.726562 140.84375 289.847656 142.207031 291 C 144.71875 294.972656 147.34375 298.882812 150.160156 302.679688 C 144.808594 297.820312 138.675781 293.617188 132.851562 289.453125 Z M 172.851562 301.65625 C 172.023438 301.902344 171.191406 302.144531 170.355469 302.386719 C 167.03125 301.050781 163.269531 296.164062 161.386719 294.210938 C 157.6875 290.378906 154.253906 286.296875 150.644531 282.382812 C 145.632812 276.933594 140.386719 271.660156 135.121094 266.421875 C 134.039062 264.488281 132.960938 262.550781 131.878906 260.613281 C 139.515625 266.871094 146.882812 273.460938 154.128906 280.28125 C 158.695312 284.585938 163.269531 288.882812 167.84375 293.179688 C 170.042969 295.257812 172.234375 297.34375 174.414062 299.441406 C 174.722656 299.734375 175.195312 300.296875 175.664062 300.847656 C 174.714844 301.109375 173.792969 301.386719 172.871094 301.660156 Z M 193.046875 298.0625 C 191.527344 296.453125 190.179688 293.878906 189.222656 292.546875 C 187.0625 289.535156 184.75 286.683594 182.363281 283.851562 C 176.007812 276.324219 168.746094 269.683594 161.847656 262.679688 C 159.035156 259.820312 156.300781 256.882812 153.597656 253.921875 C 158.851562 258.828125 164.101562 263.738281 169.445312 268.546875 C 177.601562 275.878906 184.914062 284.363281 192.058594 292.660156 C 193.222656 294.03125 194.75 296.164062 196.433594 298.28125 C 195.34375 298.183594 194.207031 298.113281 193.0625 298.066406 Z M 208.414062 300.179688 C 207.96875 299.511719 207.347656 299.121094 206.550781 299.011719 C 205.433594 298.808594 202.871094 295.273438 201.9375 294.25 C 199.632812 291.742188 197.421875 289.15625 195.203125 286.578125 C 188.492188 278.777344 181.484375 271.078125 173.953125 264.046875 C 165.199219 255.871094 156.332031 247.78125 147.53125 239.644531 C 143.78125 236.175781 140.050781 232.734375 135.894531 229.761719 C 132.058594 227.003906 127.726562 224.558594 124.757812 220.785156 C 125.324219 219.976562 125.898438 219.164062 126.480469 218.355469 C 126.542969 218.425781 126.585938 218.5 126.65625 218.570312 C 141.289062 233.136719 156.226562 246.949219 171.984375 260.292969 C 186.902344 272.914062 199.90625 287.507812 213.871094 301.132812 C 212.070312 300.832031 210.269531 300.519531 208.433594 300.183594 Z M 235.128906 301.828125 C 235.023438 301.847656 234.910156 301.859375 234.808594 301.871094 C 234.691406 301.714844 234.566406 301.566406 234.429688 301.429688 C 223.703125 291.113281 214.207031 279.613281 204.707031 268.144531 C 209.195312 272.445312 213.605469 276.820312 217.941406 281.265625 C 224.238281 287.738281 229.550781 295.515625 236.296875 301.582031 C 235.914062 301.664062 235.515625 301.753906 235.128906 301.828125 Z M 243.5 299.289062 C 242.621094 298.648438 241.746094 297.960938 240.914062 297.246094 C 241.039062 296.292969 240.789062 295.457031 240.164062 294.730469 C 238.628906 292.863281 237.085938 290.996094 235.535156 289.128906 C 237.988281 291.921875 241.394531 296.136719 244.953125 298.644531 C 244.46875 298.878906 243.984375 299.078125 243.5 299.289062 Z M 251.359375 294.773438 C 250.9375 294.589844 250.5 294.503906 250.042969 294.507812 L 249.988281 294.4375 C 251.082031 294.089844 249.59375 293.472656 248.351562 292.585938 C 240.539062 284.007812 233.542969 274.753906 226.136719 265.832031 C 218.070312 256.128906 208.976562 247.351562 199.71875 238.804688 C 190.738281 230.507812 181.425781 222.582031 172.472656 214.257812 C 169.921875 211.296875 167.417969 208.320312 165.039062 205.183594 C 164.148438 204.015625 163.304688 202.757812 162.484375 201.460938 C 166.839844 205.609375 171.308594 209.636719 175.496094 213.789062 C 185.273438 223.457031 195.082031 233.085938 204.71875 242.894531 C 220.636719 259.097656 240.035156 274.722656 251.507812 294.664062 Z M 258.546875 286.34375 C 252.109375 277.503906 244.996094 269.222656 237.824219 260.980469 C 230.976562 253.125 224.445312 245.015625 217.824219 236.972656 C 226.578125 245.089844 235.101562 253.585938 243.003906 262.492188 C 248.839844 269.074219 252.664062 278.179688 259.460938 283.890625 L 259.488281 283.910156 C 259.1875 284.769531 258.871094 285.570312 258.546875 286.34375 Z M 261.171875 276.65625 C 256.5625 271.570312 253.265625 264.90625 248.964844 259.722656 C 241.640625 250.867188 233.175781 242.703125 224.761719 234.796875 C 230.0625 238.464844 235.371094 242.117188 240.777344 245.601562 C 242.019531 247.007812 243.242188 248.433594 244.429688 249.902344 C 247.476562 253.667969 250.195312 257.644531 253.320312 261.347656 C 255.363281 263.773438 259.589844 267.265625 260.324219 270.425781 C 260.484375 271.230469 260.90625 271.847656 261.601562 272.28125 C 261.539062 273.746094 261.398438 275.207031 261.183594 276.65625 Z M 261.171875 276.65625 " fill-opacity="1" fill-rule="nonzero"/></g><g clip-path="url(#9fbac6d089)"><path fill="#f4ede6" d="M 125.070312 145.742188 C 131.621094 151.582031 140.699219 154.472656 149.839844 154.472656 C 155.957031 154.496094 161.792969 153.230469 167.351562 150.675781 C 183.566406 143.082031 184.664062 126.007812 183.695312 111.171875 C 183.113281 102.3125 181.289062 93.546875 178.597656 85.089844 C 176.292969 77.835938 172.980469 69.773438 168.027344 66.5625 C 163.625 63.707031 159.3125 62.492188 155.160156 62.492188 C 137.667969 62.492188 123.1875 84.113281 117.976562 95.402344 C 117.894531 95.582031 116.386719 99.300781 115.898438 101.160156 C 112 116.050781 112.898438 134.898438 125.070312 145.742188 Z M 157.773438 145.910156 C 157.644531 145.648438 157.488281 145.40625 157.300781 145.1875 C 151.722656 138.722656 147.574219 131.136719 143.777344 123.496094 C 149.582031 130.605469 154.640625 138.335938 160.929688 145.023438 C 159.894531 145.371094 158.839844 145.660156 157.789062 145.910156 Z M 175.714844 107.78125 C 175.855469 109.089844 175.980469 110.382812 176.0625 111.667969 C 176.117188 112.464844 176.148438 113.226562 176.179688 113.992188 C 175.074219 111.816406 174.003906 109.625 172.96875 107.414062 C 173.339844 107.761719 173.777344 107.96875 174.28125 108.039062 C 174.785156 108.105469 175.261719 108.019531 175.714844 107.78125 Z M 173.507812 122.273438 C 174.257812 122.914062 175.121094 123.175781 176.097656 123.054688 C 175.949219 125.148438 175.648438 127.21875 175.195312 129.265625 C 173.875 126.199219 172.542969 123.140625 171.199219 120.082031 C 171.921875 120.859375 172.695312 121.589844 173.507812 122.273438 Z M 168.753906 131.183594 C 169.535156 133.457031 170.429688 135.683594 171.441406 137.867188 C 170.5625 139.042969 169.554688 140.09375 168.414062 141.019531 C 167.378906 137.699219 165.570312 134.765625 163.453125 131.996094 C 160.800781 124.988281 157.488281 118.238281 154.53125 111.332031 C 159.652344 117.644531 164.207031 124.355469 168.753906 131.183594 Z M 155.078125 70.160156 C 156.4375 73.082031 157.996094 75.945312 159.648438 78.777344 C 159.402344 78.445312 159.144531 78.117188 158.894531 77.789062 C 157.144531 74.765625 155.121094 71.96875 152.085938 70.515625 C 153.070312 70.289062 154.070312 70.167969 155.078125 70.148438 Z M 147.28125 72.296875 C 146.722656 73.601562 146.988281 75.136719 148.671875 75.898438 C 149.171875 76.132812 149.632812 76.429688 150.054688 76.789062 C 152.238281 79.980469 154.246094 83.285156 156.070312 86.695312 C 152.402344 82.484375 148.523438 78.421875 144.882812 74.398438 C 144.746094 74.253906 144.601562 74.117188 144.445312 73.996094 C 145.355469 73.375 146.300781 72.808594 147.28125 72.296875 Z M 139.738281 77.800781 C 139.878906 78.210938 140.085938 78.582031 140.363281 78.910156 C 146.628906 86.417969 151.742188 94.703125 156.273438 103.339844 C 156.007812 103.050781 155.753906 102.742188 155.484375 102.464844 C 153.253906 100.058594 150.847656 97.722656 148.53125 95.308594 C 146.265625 89.175781 143.464844 82.976562 138.996094 78.523438 C 139.242188 78.265625 139.488281 78.03125 139.738281 77.800781 Z M 133.320312 84.945312 C 135.605469 90.160156 139.21875 94.628906 143.136719 98.824219 C 144.199219 101.832031 145.144531 104.832031 146.132812 107.585938 C 146.765625 109.335938 147.453125 111.089844 148.175781 112.816406 C 142.234375 105.296875 135.71875 97.828125 134.222656 88.226562 C 134.03125 87.003906 133.34375 86.320312 132.46875 86.050781 C 132.753906 85.6875 133.03125 85.316406 133.316406 84.941406 Z M 123.308594 103.109375 C 123.519531 102.308594 124.183594 100.5625 124.628906 99.386719 C 125.910156 102.105469 127.042969 104.894531 128.394531 107.601562 C 131.058594 112.933594 133.9375 118.140625 136.65625 123.449219 C 140.308594 130.609375 143.9375 137.738281 148.5625 144.261719 C 145.761719 142.125 143.410156 139.253906 141.039062 136.542969 C 139.042969 133.699219 137.078125 130.832031 135.140625 127.945312 C 130.945312 121.726562 126.8125 115.46875 122.742188 109.164062 C 122.582031 108.921875 122.394531 108.703125 122.179688 108.507812 C 122.472656 106.648438 122.851562 104.832031 123.304688 103.105469 Z M 134.359375 138.605469 C 135.601562 140.773438 136.972656 142.855469 138.46875 144.855469 C 135.394531 143.773438 132.621094 142.164062 130.160156 140.027344 C 126.199219 136.5 123.816406 131.808594 122.570312 126.675781 C 126.375 130.769531 130.320312 134.738281 134.359375 138.601562 Z M 134.359375 138.605469 " fill-opacity="1" fill-rule="nonzero"/></g><path fill="#f4ede6" d="M 307.796875 163.375 C 306.183594 155.453125 303.628906 145.316406 297.460938 140.019531 C 294.992188 137.890625 292.386719 137.003906 289.796875 137.003906 C 287.207031 137.003906 284.574219 137.914062 282.164062 139.375 C 269.320312 144.339844 259.929688 158.6875 254.933594 171.53125 C 249.679688 185.042969 248.980469 203.132812 261.019531 212.753906 C 263.542969 214.765625 266.332031 216.296875 269.382812 217.351562 C 272.429688 218.40625 275.570312 218.921875 278.796875 218.898438 C 280.839844 218.898438 282.863281 218.699219 284.863281 218.300781 C 292.136719 216.859375 298.042969 211.601562 302.085938 205.230469 C 309.527344 193.464844 310.5625 176.886719 307.796875 163.375 Z M 292.46875 145.8125 C 294.6875 147.71875 296.332031 151 297.554688 154.414062 C 295.328125 151.308594 293.128906 148.179688 291.132812 144.929688 C 291.628906 145.152344 292.078125 145.449219 292.480469 145.8125 Z M 265.800781 206.769531 C 260.839844 202.792969 258.914062 196.324219 259.011719 189.414062 C 261.453125 193.378906 263.949219 197.308594 266.507812 201.203125 C 267.78125 203.152344 269.859375 207.316406 272.34375 210.253906 C 269.945312 209.5 267.765625 208.335938 265.800781 206.769531 Z M 263.292969 181.226562 C 263.023438 180.722656 262.636719 180.335938 262.140625 180.058594 C 261.640625 179.785156 261.109375 179.664062 260.539062 179.703125 C 260.488281 179.644531 260.445312 179.585938 260.394531 179.527344 C 260.6875 178.453125 261.003906 177.390625 261.351562 176.339844 C 263.851562 180.84375 267.25 184.855469 270.238281 189.070312 C 271.753906 191.207031 273.15625 193.421875 274.515625 195.660156 C 270.378906 191.15625 266.410156 186.519531 263.292969 181.226562 Z M 267.757812 167.957031 C 267.738281 167.859375 267.714844 167.761719 267.6875 167.664062 C 271.09375 171.839844 274.332031 176.132812 277.449219 180.511719 C 273.300781 176.785156 268.355469 172.289062 267.757812 167.957031 Z M 289.535156 207.921875 C 285.582031 202.316406 282.085938 196.433594 278.613281 190.527344 C 282.925781 195.054688 287.265625 199.554688 291.746094 203.902344 C 292.097656 204.25 292.507812 204.5 292.972656 204.664062 C 291.941406 205.871094 290.792969 206.957031 289.535156 207.921875 Z M 297.191406 198.300781 C 289.128906 186.234375 281.203125 174.066406 271.976562 162.855469 C 276.472656 167.480469 281.078125 172.003906 285.636719 176.566406 C 290.191406 182.753906 293.96875 189.535156 298.253906 195.90625 C 297.925781 196.71875 297.582031 197.515625 297.191406 198.300781 Z M 301.207031 183.515625 C 297.703125 179.695312 294.074219 175.996094 290.40625 172.328125 C 290.359375 172.261719 290.3125 172.191406 290.265625 172.125 C 285.429688 165.605469 279.023438 159.941406 276.378906 152.066406 C 277.085938 151.417969 277.808594 150.804688 278.542969 150.230469 C 278.582031 150.597656 278.679688 150.949219 278.835938 151.28125 C 280.941406 155.933594 284.414062 159.71875 287.714844 163.546875 C 292.632812 169.257812 296.175781 176.050781 300.507812 182.210938 C 300.71875 182.511719 300.976562 182.769531 301.277344 182.984375 C 301.25 183.164062 301.226562 183.339844 301.207031 183.515625 Z M 295.078125 162.523438 C 291.417969 157.730469 286.855469 153.632812 284.332031 148.066406 C 284.171875 147.695312 283.941406 147.367188 283.648438 147.089844 C 284 146.925781 284.34375 146.757812 284.703125 146.609375 C 289.617188 154.957031 295.996094 162.324219 300.824219 170.734375 C 300.941406 170.945312 301.085938 171.140625 301.246094 171.316406 C 301.261719 171.46875 301.277344 171.609375 301.289062 171.761719 C 299.300781 168.609375 297.316406 165.46875 295.070312 162.523438 Z M 295.078125 162.523438 " fill-opacity="1" fill-rule="nonzero"/><path fill="#f4ede6" d="M 101.074219 211.371094 C 104.003906 211.363281 106.792969 210.71875 109.429688 209.441406 C 110.152344 209.464844 110.824219 209.292969 111.445312 208.921875 C 112.066406 208.550781 112.535156 208.042969 112.859375 207.394531 C 118.511719 203.332031 122.488281 196.78125 124.140625 190.828125 C 125.042969 187.632812 125.359375 184.378906 125.09375 181.070312 C 124.828125 177.757812 123.996094 174.597656 122.59375 171.585938 C 122.109375 170.523438 121.558594 169.488281 120.972656 168.472656 C 119.496094 163.339844 117.636719 158.355469 115.386719 153.515625 C 111.984375 146.027344 107.148438 138.828125 98.996094 134.941406 C 95.542969 133.273438 91.898438 132.429688 88.066406 132.402344 C 85.667969 132.382812 83.335938 132.761719 81.074219 133.546875 C 78.808594 134.332031 76.738281 135.472656 74.867188 136.96875 C 68.757812 141.871094 66.632812 150.011719 65.625 157.046875 C 64.574219 164.347656 65.546875 172.023438 67.46875 179.15625 C 71.246094 193.183594 81.40625 209.03125 98.578125 211.21875 C 99.40625 211.320312 100.238281 211.371094 101.074219 211.371094 Z M 113.054688 170.507812 C 113.378906 170.886719 113.699219 171.269531 114.019531 171.652344 C 114.117188 171.878906 114.226562 172.097656 114.347656 172.3125 C 114.871094 173.214844 115.292969 174.023438 115.636719 174.777344 C 116.515625 176.6875 117.089844 178.691406 117.359375 180.777344 C 110.972656 174.492188 104.964844 167.824219 98.65625 161.449219 C 98.273438 161.0625 97.894531 160.667969 97.515625 160.28125 C 102.582031 163.578125 107.644531 166.882812 112.640625 170.289062 C 112.773438 170.375 112.910156 170.449219 113.054688 170.507812 Z M 95.710938 141.867188 C 100.914062 144.34375 104.964844 149.046875 108.425781 156.695312 C 108.445312 156.738281 108.460938 156.777344 108.480469 156.820312 C 102.988281 151.65625 97.347656 146.632812 92.660156 140.734375 C 93.707031 141.027344 94.726562 141.40625 95.710938 141.867188 Z M 85.089844 140.382812 C 85.105469 140.996094 85.296875 141.546875 85.671875 142.035156 C 87.296875 144.230469 89.03125 146.332031 90.882812 148.34375 C 87.636719 146.210938 84.394531 144.066406 81.1875 141.871094 C 82.40625 141.160156 83.707031 140.664062 85.089844 140.382812 Z M 75.664062 148.5 C 75.957031 148.859375 76.3125 149.140625 76.730469 149.34375 C 76.753906 149.34375 78.386719 151.707031 78.390625 151.714844 C 79.609375 153.0625 81.398438 154.117188 82.871094 155.140625 C 87.121094 158.085938 90.40625 162.410156 94.148438 165.957031 C 94.679688 166.460938 95.199219 166.980469 95.730469 167.496094 C 88.492188 162.425781 80.242188 158.101562 74.933594 150.933594 C 74.894531 150.882812 74.851562 150.851562 74.8125 150.804688 C 75.074219 149.984375 75.355469 149.210938 75.664062 148.5 Z M 73.152344 158.445312 C 78.132812 163.488281 84.179688 167.269531 90.101562 171.277344 C 99.066406 177.347656 107.480469 185.507812 114.535156 193.699219 C 114.578125 193.746094 114.621094 193.773438 114.660156 193.820312 C 114.558594 194.003906 114.449219 194.191406 114.339844 194.378906 C 109.171875 188.679688 102.582031 184.355469 96.628906 179.539062 C 89.449219 173.726562 82.089844 168.152344 74.097656 163.5 C 73.714844 163.269531 73.300781 163.121094 72.859375 163.0625 C 72.859375 161.515625 72.957031 159.976562 73.152344 158.445312 Z M 73.441406 170.554688 C 80.628906 174.996094 87.289062 180.140625 93.871094 185.460938 C 99.5 190.015625 105.601562 194.0625 110.386719 199.527344 C 109.800781 200.097656 109.175781 200.625 108.515625 201.109375 C 103.910156 196.890625 99.601562 192.230469 94.507812 188.691406 C 88.042969 184.203125 81.109375 180.460938 74.59375 176.054688 C 74.121094 174.175781 73.734375 172.335938 73.441406 170.554688 Z M 80.054688 189.464844 C 79.34375 188.296875 78.683594 187.089844 78.089844 185.863281 C 81.210938 187.777344 84.34375 189.679688 87.429688 191.652344 C 85.035156 190.71875 82.582031 189.992188 80.066406 189.464844 Z M 88.488281 199.050781 C 90.585938 200.035156 92.613281 201.148438 94.574219 202.390625 C 92.386719 201.570312 90.363281 200.457031 88.5 199.050781 Z M 88.488281 199.050781 " fill-opacity="1" fill-rule="nonzero"/></svg>